<svg xmlns="http://www.w3.org/2000/svg" viewBox="0 0 145.59 48"><defs><style>.cls-1,.cls-2{fill:#fff;}.cls-2{font-size:16.65px;font-family:FuturaStd-Bold, Futura Std;font-weight:700;}</style></defs><g id="Capa_2" data-name="Capa 2"><g id="Capa_1-2" data-name="Capa 1"><path class="cls-1" d="M43.34,15.06V0H29.25V4.47L24,0,0,18.75V48H19.72l-.09-13.21,4.32.09L32.36,48h5.15L28.18,33.33a11.59,11.59,0,0,0,5.44-5.64,8.21,8.21,0,0,0,.58-6.22c-1.51-4.06-6.58-4.83-6.8-4.85H15.55l-.29,27.2L4,43.92,3.89,20.6,24,4.66l9.48,7.78V4.37l5.73-.09V17.07L44,20.89V48H47.9V18.75ZM19.72,19.63l6.22.09c.22,0,3.13.35,4.28,2.73a5.54,5.54,0,0,1-.29,4.66,8.6,8.6,0,0,1-4.57,4.37H19.72Z"/><text class="cls-2" transform="translate(54.63 33.35)">AMARIOS</text></g></g></svg>